# xmcd
#
# Track frame offsets: 
#        150
#        15092
#        28700
#        41310
#        53275
#        68107
#        86832
#        95917
#        111760
#        130557
#        145230
#        159012
#
# Disc length: 2310 seconds
#
# Revision: 2
# Processed by: cddbd v1.5.2PL0 Copyright (c) Steve Scherf et al.
# Submitted via: ExactAudioCopy v1.0b3
#
DISCID=8709040c
DTITLE=Sex Pistols - Never Mind The Bollocks 
DYEAR=1977
DGENRE=Punk Rock
TTITLE0=Pretty Vacant
TTITLE1=Liar
TTITLE2=No Feelings
TTITLE3=New York
TTITLE4=God Save The Queen
TTITLE5=Seventeen
TTITLE6=Sub Mission
TTITLE7=Emi Unlimited Edition
TTITLE8=Anarchy In The U.k.
TTITLE9=Problems
TTITLE10=Bodies
TTITLE11=Holidays In The Sun
EXTD=
EXTT0=
EXTT1=
EXTT2=
EXTT3=
EXTT4=
EXTT5=
EXTT6=
EXTT7=
EXTT8=
EXTT9=
EXTT10=
EXTT11=
PLAYORDER=
